<svg id="RTSLabs_LOGO_horizontal" xmlns="http://www.w3.org/2000/svg" xmlns:xlink="http://www.w3.org/1999/xlink" width="153.86" height="54.006" viewBox="0 0 153.86 54.006">
  <defs>
    <clipPath id="clip-path">
      <rect id="Rectangle_1525" data-name="Rectangle 1525" width="153.86" height="54.006"/>
    </clipPath>
    <clipPath id="clip-path-12">
      <rect id="Rectangle_1538" data-name="Rectangle 1538" width="153.86" height="54.006" fill="#fff"/>
    </clipPath>
  </defs>
  <g id="Group_349" data-name="Group 349" transform="translate(0 0)">
    <g id="Group_347" data-name="Group 347" transform="translate(0 0)" clip-path="url(#clip-path)">
      <path id="Path_2075" data-name="Path 2075" d="M125.729,46.511V40.087a5.211,5.211,0,0,0-5.213-5.2H103.731V28.453h16.753l5.221-5.2H103.739a5.218,5.218,0,0,0-5.221,5.2v6.432a5.223,5.223,0,0,0,5.221,5.2h16.785v6.424H98.51v5.2h22a5.218,5.218,0,0,0,5.221-5.2" transform="translate(-36.399 -17.983)" fill="#2d2728"/>
    </g>
    <g id="Group_348" data-name="Group 348" transform="translate(0 0)" clip-path="url(#clip-path)">
      <path id="Path_2076" data-name="Path 2076" d="M26.171,28.443h17v6.432h-17Zm15.1,11.634h1.906a5.218,5.218,0,0,0,5.221-5.2V28.443a5.213,5.213,0,0,0-5.221-5.2H20.95V51.7h5.221V40.077h8.8L42.812,51.7l6.3.016Z" transform="translate(-20.95 -17.981)" fill="#2d2728"/>
    </g>
  </g>
  <path id="Path_2077" data-name="Path 2077" d="M70.438,40.113V26.323h3.774L77.3,23.24H60.46v3.083h6.89v13.79Z" transform="translate(-25.873 -20.124)" fill="#2d2728"/>
  <g id="Group_354" data-name="Group 354" transform="translate(0 0)">
    <g id="Group_350" data-name="Group 350" transform="translate(0 0)" clip-path="url(#clip-path)">
      <path id="Path_2078" data-name="Path 2078" d="M50.968,80.536c-1.578.112-2.362-.383-2.378-2.083L48.51,67.1l.961-.008.08,11.371c.008,1,.416,1.221,1.409,1.213Z" transform="translate(-26.44 -26.841)" fill="#fff"/>
    </g>
    <g id="Group_351" data-name="Group 351" transform="translate(0 0)" clip-path="url(#clip-path)">
      <path id="Path_2079" data-name="Path 2079" d="M66.019,76.6a5.823,5.823,0,0,0-4.372.391,1.925,1.925,0,0,0,.641,3.511,4.258,4.258,0,0,0,1.129.128c1-.008,2.627-.4,2.619-1.62ZM66,74.493a1.324,1.324,0,0,0-.232-.782,2.527,2.527,0,0,0-1.618-.87,4.384,4.384,0,0,0-1.514.008,2.56,2.56,0,0,0-1.762,1.005l-.825-.511c1.121-1.827,5.221-1.947,6.5-.223a2.421,2.421,0,0,1,.416,1.428L67,79.576a.826.826,0,0,0,.945.894l.008.862a1.628,1.628,0,0,1-1.738-.75,3.867,3.867,0,0,1-2.795,1.013,5.976,5.976,0,0,1-1.4-.184A2.831,2.831,0,0,1,61.03,76.3a6.945,6.945,0,0,1,4.981-.591Z" transform="translate(-28.685 -27.812)" fill="#fff"/>
    </g>
    <g id="Group_352" data-name="Group 352" transform="translate(0 0)" clip-path="url(#clip-path)">
      <path id="Path_2080" data-name="Path 2080" d="M79.819,77.437c.008,1.452,1.433,2.019,2.643,2.011a4.7,4.7,0,0,0,1.129-.144c.825-.231,1.466-.734,1.466-1.484l-.032-4.261c-.016-2.41-5.253-2.178-5.237-.1Zm-.08-10.669.04,5.179c1.562-1.867,6.206-1.2,6.23,1.636l.032,4.221a2.576,2.576,0,0,1-2.186,2.41c-1.417.391-3.315.04-4.092-1.045l.008,1.045-.9.008q-.048-6.739-.1-13.462Z" transform="translate(-32.467 -26.774)" fill="#fff"/>
    </g>
    <g id="Group_353" data-name="Group 353" transform="translate(0 0)" clip-path="url(#clip-path)">
      <path id="Path_2081" data-name="Path 2081" d="M97.885,78.762c.7,1.636,2.851,1.62,4.02,1.293.849-.231,1.49-.758,1.49-1.524.008-1.317-1.337-1.484-2.675-1.644-1.77-.215-3.516-.415-3.516-2.617a2.7,2.7,0,0,1,2.186-2.522c1.514-.431,3.972-.279,4.709,1.341l-.761.5c-.721-1.2-2.482-1.261-3.692-.91-.841.255-1.49.774-1.49,1.58-.008,1.317,1.337,1.484,2.683,1.644,1.746.215,3.516.431,3.508,2.609a2.644,2.644,0,0,1-2.186,2.466c-1.666.487-4.428.184-5.1-1.684Z" transform="translate(-36.11 -27.74)" fill="#fff"/>
    </g>
  </g>
  <rect id="Rectangle_1531" data-name="Rectangle 1531" width="10.026" height="0.709" transform="translate(0 49.381)" fill="#80c41c"/>
  <rect id="Rectangle_1532" data-name="Rectangle 1532" width="10.021" height="0.709" transform="translate(76.135 49.381)" fill="#80c41c"/>
  <g id="Group_357" data-name="Group 357" transform="translate(0 0)">
    <g id="Group_355" data-name="Group 355" transform="translate(0 0)" clip-path="url(#clip-path)">
      <path id="Path_2083" data-name="Path 2083" d="M125.729,46.511V40.087a5.211,5.211,0,0,0-5.213-5.2H103.731V28.453h16.753l5.221-5.2H103.739a5.218,5.218,0,0,0-5.221,5.2v6.432a5.223,5.223,0,0,0,5.221,5.2h16.785v6.424H98.51v5.2h22a5.218,5.218,0,0,0,5.221-5.2" transform="translate(-36.399 -17.983)" fill="#fff"/>
    </g>
    <g id="Group_356" data-name="Group 356" transform="translate(0 0)" clip-path="url(#clip-path)">
      <path id="Path_2084" data-name="Path 2084" d="M26.171,28.443h17v6.432h-17Zm15.1,11.634h1.906a5.218,5.218,0,0,0,5.221-5.2V28.443a5.213,5.213,0,0,0-5.221-5.2H20.95V51.7h5.221V40.077h8.8L42.812,51.7l6.3.016Z" transform="translate(-20.95 -17.981)" fill="#fff"/>
    </g>
  </g>
  <path id="Path_2085" data-name="Path 2085" d="M77.357,51.711V28.443h6.39l5.221-5.2H60.46v5.2H72.128V51.711Z" transform="translate(-28.82 -17.981)" fill="#fff"/>
  <g id="Group_362" data-name="Group 362" transform="translate(0 0)">
    <g id="Group_358" data-name="Group 358" transform="translate(0 0)" clip-path="url(#clip-path)">
      <path id="Path_2086" data-name="Path 2086" d="M50.968,80.536c-1.578.112-2.362-.383-2.378-2.083L48.51,67.1l.961-.008.08,11.371c.008,1,.416,1.221,1.409,1.213Z" transform="translate(-26.44 -26.841)" fill="#fff"/>
    </g>
    <g id="Group_359" data-name="Group 359" transform="translate(0 0)" clip-path="url(#clip-path)">
      <path id="Path_2087" data-name="Path 2087" d="M66.019,76.6a5.823,5.823,0,0,0-4.372.391,1.925,1.925,0,0,0,.641,3.511,4.258,4.258,0,0,0,1.129.128c1-.008,2.627-.4,2.619-1.62ZM66,74.493a1.324,1.324,0,0,0-.232-.782,2.527,2.527,0,0,0-1.618-.87,4.384,4.384,0,0,0-1.514.008,2.56,2.56,0,0,0-1.762,1.005l-.825-.511c1.121-1.827,5.221-1.947,6.5-.223a2.421,2.421,0,0,1,.416,1.428L67,79.576a.826.826,0,0,0,.945.894l.008.862a1.628,1.628,0,0,1-1.738-.75,3.867,3.867,0,0,1-2.795,1.013,5.976,5.976,0,0,1-1.4-.184A2.831,2.831,0,0,1,61.03,76.3a6.945,6.945,0,0,1,4.981-.591Z" transform="translate(-28.685 -27.812)" fill="#fff"/>
    </g>
    <g id="Group_360" data-name="Group 360" transform="translate(0 0)" clip-path="url(#clip-path)">
      <path id="Path_2088" data-name="Path 2088" d="M79.819,77.437c.008,1.452,1.433,2.019,2.643,2.011a4.7,4.7,0,0,0,1.129-.144c.825-.231,1.466-.734,1.466-1.484l-.032-4.261c-.016-2.41-5.253-2.178-5.237-.1Zm-.08-10.669.04,5.179c1.562-1.867,6.206-1.2,6.23,1.636l.032,4.221a2.576,2.576,0,0,1-2.186,2.41c-1.417.391-3.315.04-4.092-1.045l.008,1.045-.9.008q-.048-6.739-.1-13.462Z" transform="translate(-32.467 -26.774)" fill="#fff"/>
    </g>
    <g id="Group_361" data-name="Group 361" transform="translate(0 0)" clip-path="url(#clip-path-12)">
      <path id="Path_2089" data-name="Path 2089" d="M97.885,78.762c.7,1.636,2.851,1.62,4.02,1.293.849-.231,1.49-.758,1.49-1.524.008-1.317-1.337-1.484-2.675-1.644-1.77-.215-3.516-.415-3.516-2.617a2.7,2.7,0,0,1,2.186-2.522c1.514-.431,3.972-.279,4.709,1.341l-.761.5c-.721-1.2-2.482-1.261-3.692-.91-.841.255-1.49.774-1.49,1.58-.008,1.317,1.337,1.484,2.683,1.644,1.746.215,3.516.431,3.508,2.609a2.644,2.644,0,0,1-2.186,2.466c-1.666.487-4.428.184-5.1-1.684Z" transform="translate(-36.11 -27.74)" fill="#fff"/>
    </g>
  </g>
  <rect id="Rectangle_1539" data-name="Rectangle 1539" width="10.026" height="0.709" transform="translate(0 49.381)" fill="#fff"/>
  <rect id="Rectangle_1540" data-name="Rectangle 1540" width="10.021" height="0.709" transform="translate(76.135 49.381)" fill="#fff"/>
  <path id="Path_2090" data-name="Path 2090" d="M173.13,65.211l7.773-4.186,7.773,4.186L180.9,69.4ZM154.746,64.9V54.91l7.837,4.217v9.99Zm8.9-5.772,7.829-4.217V64.9l-7.829,4.217Zm17.795.981V50.127l7.837,4.217v9.99Zm-8.9-5.772,7.837-4.217V60.1l-7.837,4.217Zm-17.213-.319,7.781-4.186,7.773,4.186L163.109,58.2Zm-8.889-4.791,7.773-4.186,7.773,4.186L154.427,53.3l-.223.12Zm35-.319v-9.99l7.837,4.217v9.99Zm8.9-5.764,7.837-4.225v9.99l-7.837,4.217Zm-44.487-4.791,7.829-4.217v9.982l-7.837,4.217V38.351Zm8.889,5.764V34.134l5.716,3.077,2.121,1.14v9.99Zm8.905,4.791V38.351l8.371-4.5,8.363,4.5V48.907l-8.363,4.5Zm18.385-10.875,3.6-1.937,4.186-2.256,7.773,4.186-7.773,4.186Zm-8.9-4.791,7.773-4.186,7.773,4.186L180.9,37.426Zm-13.888,2.1-4.5-2.424v-9.99l7.837,4.217v9.982Zm4.4-8.188,7.829-4.217v9.99l-7.829,4.217Zm8.9-4.791,7.837-4.217V28.13l-7.837,4.217Zm8.9,5.764V18.149l7.837,4.217v9.982Zm-26.11-6.075,7.781-4.186,7.773,4.186-7.773,4.186ZM180.9,16.65l-8.9,4.791-8.9-4.791-9.431,5.078V32.922l-8.9,4.791V49.545l8.9,4.791V65.53l9.431,5.078,8.9-4.791,8.9,4.791,9.431-5.078V54.336l8.9-4.791V37.721l-8.9-4.791v-11.2Z" transform="translate(-45.616 -16.65)" fill="#fff"/>
</svg>
